# xmcd
#
# Track frame offsets:
#	150
#	18994
#	33497
#	47804
#	64381
#	77863
#	93959
#	111602
#	125558
#	142647
#	161063
#	179213
#	196632
#	215216
#	253502
#	269679
#	285084
#	305070
#
# Disc length: 4302 seconds
#
# Revision: 1
# Processed by: cddbd v1.5.2PL0 Copyright (c) Steve Scherf et al.
# Submitted via: audiograbber 1.83.01
#
DISCID=1110cc12
DTITLE=Various Artist - C168 WWW.TOPHITSUSA.COM
DYEAR=1900
DGENRE=
TTITLE0=KID ROCK - AMEN (Rock Edit)
TTITLE1=PARAMORE - CRUSHCRUSHCRUSH
TTITLE2=CSS - MUSIC IS MY HOT HOT SEX (Radio Edit)
TTITLE3=SILVERCHAIR - THE GREATEST VIEW
TTITLE4=HOT HOT HEAT - HARMONICAS and TAMBOURINES
TTITLE5=MONSTER IN THE MACHINE - UNDER THE SHADOW
TTITLE6=CHRIS BROWN f T-Pain and Tok - KISS KISS (Reggae Remix)
TTITLE7=ASIA CRUISE - SELFISH (Clean Edit)
TTITLE8=CHRISETTE MICHELE - BE OK (Clean Edit)
TTITLE9=MR. MACK - SO FLY (Clean Edit0
TTITLE10=KANYE WEST f Dwele - FLASHING LIGHTS (Clean Edit)
TTITLE11=MISTAH FAB f Snoop Dogg - PARTY ON (Clean Edit)
TTITLE12=CRAIG DAVID - HOT STUFF (Chase and Status Remix)
TTITLE13=ANTHONY MPULSE - GIVE ME LOVE (Dance Mix)
TTITLE14=LOIC B - TO YOU GIRL (Radio Edit)
TTITLE15=N-EURO - LOVER ON THE LINE(Radio Edit)
TTITLE16=HECTOR EL FATHER - PA' LA TUMBA
TTITLE17=DON OMAR - CANCION DE AMOR
EXTD=
EXTT0=
EXTT1=
EXTT2=
EXTT3=
EXTT4=
EXTT5=
EXTT6=
EXTT7=
EXTT8=
EXTT9=
EXTT10=
EXTT11=
EXTT12=
EXTT13=
EXTT14=
EXTT15=
EXTT16=
EXTT17=
PLAYORDER=
